# Made in Blockbench 4.4.3
mtllib nalicap.mtl

o cube
v 0.3125 1.5081578870137533 0.18696530383586316
v 0.3125 1.5 0.125
v 0.3125 0.7026089371475323 0.29301783501465506
v 0.3125 0.6944510501337791 0.2310525311787919
v -0.3125 1.5 0.125
v -0.3125 1.5081578870137533 0.18696530383586316
v -0.3125 0.6944510501337791 0.2310525311787919
v -0.3125 0.7026089371475323 0.29301783501465506
vt 0.03125 0.96875
vt 0.34375 0.96875
vt 0.34375 0.5625
vt 0.03125 0.5625
vt 0 0.96875
vt 0.03125 0.96875
vt 0.03125 0.5625
vt 0 0.5625
vt 0.375 0.96875
vt 0.6875 0.96875
vt 0.6875 0.5625
vt 0.375 0.5625
vt 0.34375 0.96875
vt 0.375 0.96875
vt 0.375 0.5625
vt 0.34375 0.5625
vt 0.34375 0.96875
vt 0.03125 0.96875
vt 0.03125 1
vt 0.34375 1
vt 0.65625 1
vt 0.34375 1
vt 0.34375 0.96875
vt 0.65625 0.96875
vn 0 -0.13052619222005157 -0.9914448613738104
vn 1 0 0
vn 0 0.13052619222005157 0.9914448613738104
vn -1 0 0
vn 0 0.9914448613738104 -0.13052619222005157
vn 0 -0.9914448613738104 0.13052619222005157
usemtl m_6ad59a8d-37a5-20ec-fec1-b5b1250e6b23
f 4/4/1 7/3/1 5/2/1 2/1/1
f 3/8/2 4/7/2 2/6/2 1/5/2
f 8/12/3 3/11/3 1/10/3 6/9/3
f 7/16/4 8/15/4 6/14/4 5/13/4
f 6/20/5 1/19/5 2/18/5 5/17/5
f 7/24/6 4/23/6 3/22/6 8/21/6